<svg viewBox="0 0 32 32" xmlns="http://www.w3.org/2000/svg" aria-hidden="true" role="presentation" focusable="false" style="display: block; height: 20px; width: 20px;"><g fill="none" fill-rule="nonzero"><path d="m31.36 16.36368c0-1.13456-.10176-2.22544-.29088-3.2728h-15.06912v6.18912h8.61088c-.37088 2-1.49808 3.69456-3.19264 4.82912v4.01456h5.17088c3.02544-2.78544 4.77088-6.88736 4.77088-11.76z" fill="#4285f4"></path><path d="m16 32c4.32 0 7.94176-1.4328 10.58896-3.87632l-5.17088-4.01456c-1.43264.96-3.26544 1.5272-5.41808 1.5272-4.16736 0-7.69456-2.81456-8.9528-6.59632h-5.34544v4.14544c2.6328 5.22912 8.04368 8.81456 14.29824 8.81456z" fill="#34a853"></path><path d="m7.0472 19.04c-.32-.96-.50176-1.98544-.50176-3.04s.18176-2.08.50176-3.04v-4.14544h-5.34544c-1.08352 2.16-1.70176 4.60368-1.70176 7.18544s.61824 5.02544 1.70176 7.18544z" fill="#fbbc04"></path><path d="m16 6.36368c2.34896 0 4.45808.8072 6.11632 2.39264l4.58912-4.58912c-2.77088-2.58176-6.3928-4.1672-10.70544-4.1672-6.25456 0-11.66544 3.58544-14.29824 8.81456l5.34544 4.14544c1.25824-3.78176 4.78544-6.59632 8.9528-6.59632z" fill="#e94235"></path></g></svg>